<svg height="488pt" viewBox="-74 0 488 488" width="488pt" xmlns="http://www.w3.org/2000/svg"><path d="m65.6875 200v-77.625c0-21.191406-17.183594-38.375-38.378906-38.375h-11.40625c-6.574219 0-11.898438 5.328125-11.898438 11.902344v114.902344c0 22.074218 2.226563 44.09375 6.652344 65.71875l14.257812 69.695312c.234376 1.4375.527344 2.855469.871094 4.25l.007813.027344c5.894531 23.832031 27.410156 41.503906 53.058593 41.503906h114.667969c30.191407 0 54.664063-24.476562 54.664063-54.664062v-137.335938zm0 0" fill="#f9cfcf"/><path d="m193.519531 396h-114.667969c-27.042968 0-50.457031-18.316406-56.941406-44.542969-.375-1.519531-.691406-3.054687-.941406-4.59375l-14.234375-69.539062c-4.464844-21.847657-6.734375-44.226563-6.734375-66.523438v-114.902343c0-8.769532 7.132812-15.902344 15.902344-15.902344h11.40625c23.371094 0 42.378906 19.011718 42.378906 42.378906v73.625h178.5c2.207031 0 4 1.792969 4 4v137.332031c0 32.351563-26.320312 58.667969-58.667969 58.667969zm-177.617187-308c-4.355469 0-7.902344 3.542969-7.902344 7.902344v114.898437c0 21.761719 2.210938 43.601563 6.574219 64.917969l14.261719 69.695312c.242187 1.484376.515624 2.8125.832031 4.097657 5.609375 22.671875 25.828125 38.488281 49.183593 38.488281h114.667969c27.9375 0 50.664063-22.730469 50.664063-50.667969v-133.332031h-178.5c-2.207032 0-4-1.792969-4-4v-77.625c.003906-18.953125-15.417969-34.375-34.375-34.375zm0 0" fill="#3762cc"/><path d="m130.644531 190.828125h141.542969v-1.328125l-55.527344-20.96875 1.058594-1.042969 52.261719-28.488281 49.832031-22.527344c13.335938-6.027344 19.367188-21.507812 13.527344-34.71875-5.183594-11.730468-18.019532-17.78125-30.28125-14.960937l.003906-.019531-.140625.054687c-1.378906.324219-2.75.730469-4.105469 1.285156l-93.558594 38.386719h-.003906l-139.566406 57.265625 1.453125 4.574219h-1.453125zm0 0" fill="#f9cfcf"/><path d="m272.1875 194.828125h-141.542969c-.445312 0-.886719-.074219-1.308593-.21875l-64.957032-22.488281c-1.847656-.640625-2.960937-2.519532-2.636718-4.445313.085937-.519531.273437-1 .535156-1.429687l-.402344-1.269532c-.632812-1.984374.363281-4.121093 2.289062-4.914062l233.132813-95.652344c1.40625-.574218 2.921875-1.050781 4.632813-1.457031.078124-.019531.15625-.039063.230468-.054687v-.003907c14.320313-3.28125 28.96875 3.960938 34.835938 17.242188 6.695312 15.148437-.277344 33.082031-15.539063 39.980469l-49.699219 22.46875-46.035156 25.09375 47.875 18.078124c1.554688.589844 2.585938 2.078126 2.585938 3.742188v1.328125c.003906 2.210937-1.789063 4-3.996094 4zm-140.871094-8h122.472656l-38.542968-14.554687c-1.273438-.484376-2.214844-1.582032-2.5-2.917969-.28125-1.332031.136718-2.71875 1.109375-3.675781l1.058593-1.042969c.265626-.261719.5625-.484375.890626-.660157l52.261718-28.488281c.085938-.046875.175782-.09375.265625-.132812l49.832031-22.527344c11.277344-5.097656 16.441407-18.3125 11.515626-29.457031-4.320313-9.777344-15.132813-15.113282-25.726563-12.679688-.003906 0-.003906.003906-.007813.003906-.039062.011719-.074218.019532-.105468.027344-1.324219.3125-2.46875.667969-3.5 1.09375l-229.390625 94.113282zm0 0" fill="#3762cc"/><path d="m182.6875 108h-93c-13.253906 0-24 10.746094-24 24v107.5c0 2.519531.136719 5.007812.394531 7.457031.738281 3.707031 2.878907 10.238281 9.0625 15.65625l20.316407 17.78125c8.8125 7.714844 16.035156 16.867188 21.503906 26.929688 6.113281 1.730469 12.554687 2.675781 19.222656 2.675781 38.933594 0 70.5-31.5625 70.5-70.5v-107.5c0-13.253906-10.746094-24-24-24zm0 0" fill="#4671c6"/><path d="m193.519531 392h-114.667969c-6.554687 0-12.839843-1.15625-18.664062-3.273438v95.273438h152v-95.285156c-5.828125 2.117187-12.109375 3.285156-18.667969 3.285156zm0 0" fill="#f9cfcf"/><path d="m212.1875 488h-152c-2.210938 0-4-1.792969-4-4v-95.273438c0-1.304687.632812-2.527343 1.703125-3.277343 1.070313-.746094 2.4375-.925781 3.664063-.484375 5.539062 2.015625 11.355468 3.035156 17.300781 3.035156h114.664062c5.921875 0 11.742188-1.023438 17.300781-3.042969 1.226563-.441406 2.589844-.265625 3.660157.484375 1.070312.746094 1.707031 1.96875 1.707031 3.273438v95.285156c0 2.207031-1.792969 4-4 4zm-148-8h144v-85.863281c-4.78125 1.238281-9.695312 1.863281-14.667969 1.863281h-114.667969c-4.984374 0-9.894531-.621094-14.664062-1.851562zm0 0" fill="#3762cc"/><path d="m180.6875 126h-89c-4.417969 0-8 3.582031-8 8v58.664062c0 4.421876 3.582031 8 8 8h89c4.417969 0 8-3.578124 8-8v-58.664062c0-4.417969-3.582031-8-8-8zm0 0" fill="#e0ebfc"/><path d="m128.851562 286.640625v-64.640625c0-2.210938-1.789062-4-4-4h-37.164062c-2.210938 0-4 1.789062-4 4v17.5c0 24.746094 17.214844 45.539062 40.292969 51.054688 2.492187.59375 4.871093-1.355469 4.871093-3.914063zm0 0" fill="#f9a7a7"/><path d="m143.519531 286.640625v-64.640625c0-2.210938 1.789063-4 4-4h37.167969c2.207031 0 4 1.789062 4 4v17.5c0 24.746094-17.21875 45.539062-40.296875 51.054688-2.488281.59375-4.871094-1.355469-4.871094-3.914063zm0 0" fill="#f9a7a7"/><path d="m151.1875 84v-76c0-2.207031-1.792969-4-4-4h-21.335938c-2.210937 0-4 1.792969-4 4v76zm0 0" fill="#e0ebfc"/><path d="m121.851562 20.664062h29.335938v16h-29.335938zm0 0" fill="#f9a7a7"/><path d="m162.019531 108h-51.667969v-16c0-4.417969 3.582032-8 8-8h35.667969c4.417969 0 8 3.582031 8 8zm0 0" fill="#a4c9ff"/><path d="m151.1875 88h-29.335938c-2.207031 0-4-1.792969-4-4v-76c0-4.410156 3.589844-8 8-8h21.335938c4.410156 0 8 3.589844 8 8v76c0 2.207031-1.792969 4-4 4zm-25.335938-8h21.335938v-72h-21.335938zm0 0" fill="#3762cc"/><path d="m162.019531 112h-51.667969c-2.207031 0-4-1.792969-4-4v-16c0-6.617188 5.382813-12 12-12h35.667969c6.617188 0 12 5.382812 12 12v16c0 2.207031-1.792969 4-4 4zm-47.667969-8h43.667969v-12c0-2.207031-1.796875-4-4-4h-35.667969c-2.207031 0-4 1.792969-4 4zm0 0" fill="#3762cc"/><path d="m322.511719 87.996094c0 4.421875-3.585938 8.003906-8.003907 8.003906-4.421874 0-8.003906-3.582031-8.003906-8.003906s3.582032-8.003906 8.003906-8.003906c4.417969 0 8.003907 3.582031 8.003907 8.003906zm0 0" fill="#f9a7a7"/><path d="m299.761719 153.84375c-1.871094 2.855469-2.980469 6.285156-3.03125 9.976562-.132813 9.738282 7.390625 18.0625 16.820312 18.570313 10.25.554687 18.734375-7.855469 18.734375-18.304687 0-3.796876-1.121094-7.320313-3.03125-10.242188l-.007812-.007812-13.257813-20.601563c-.703125-1.09375-2.261719-1.09375-2.960937 0l-13.261719 20.597656v.003907zm0 0" fill="#f9a7a7"/><path d="m128.851562 358c-2.207031 0-4-1.792969-4-4 0-27.046875-11.671874-52.78125-32.027343-70.597656l-20.3125-17.78125c-10.410157-9.109375-10.8125-21.023438-10.824219-21.527344-.054688-2.207031 1.691406-4.042969 3.902344-4.09375h.097656c2.164062 0 3.945312 1.726562 4 3.902344.011719.339844.410156 8.972656 8.09375 15.699218l20.3125 17.78125c22.089844 19.335938 34.757812 47.261719 34.757812 76.621094 0 2.203125-1.789062 3.996094-4 3.996094zm0 0" fill="#3762cc"/><path d="m136.1875 314c-6.851562 0-13.6875-.953125-20.3125-2.824219-1.035156-.296875-1.914062-.996093-2.425781-1.945312-5.34375-9.839844-12.285157-18.527344-20.625-25.828125l-20.3125-17.78125c-7.148438-6.257813-9.554688-13.890625-10.351563-17.882813-.023437-.121093-.042968-.242187-.054687-.363281-.277344-2.632812-.417969-5.28125-.417969-7.878906v-107.496094c0-15.441406 12.558594-28 28-28h93c15.441406 0 28 12.558594 28 28v107.5c0 41.078125-33.421875 74.5-74.5 74.5zm-16.546875-10.097656c5.417969 1.390625 10.976563 2.097656 16.546875 2.097656 36.667969 0 66.5-29.832031 66.5-66.5v-107.5c0-11.027344-8.972656-20-20-20h-93c-11.03125 0-20 8.972656-20 20v107.5c0 2.253906.117188 4.554688.351562 6.851562.636719 3.039063 2.476563 8.636719 7.742188 13.25l20.3125 17.78125c8.625 7.550782 15.871094 16.464844 21.546875 26.519532zm0 0" fill="#3762cc"/><g fill="#f9cfcf"><path d="m260.1875 236h-99c-14.363281 0-26-11.640625-26-26s11.636719-26 26-26h99c9.941406 0 18 8.058594 18 18v16c0 9.941406-8.058594 18-18 18zm0 0"/><path d="m260.1875 288h-99c-14.363281 0-26-11.640625-26-26s11.636719-26 26-26h99c9.941406 0 18 8.058594 18 18v16c0 9.941406-8.058594 18-18 18zm0 0"/><path d="m260.1875 340h-72.167969c-14.359375 0-26-11.640625-26-26s11.640625-26 26-26h72.167969c9.941406 0 18 8.058594 18 18v16c0 9.941406-8.058594 18-18 18zm0 0"/></g><path d="m260.1875 240h-99c-16.542969 0-30-13.457031-30-30s13.457031-30 30-30h99c12.128906 0 22 9.871094 22 22v16c0 12.128906-9.871094 22-22 22zm-99-52c-12.132812 0-22 9.871094-22 22s9.867188 22 22 22h99c7.71875 0 14-6.28125 14-14v-16c0-7.71875-6.28125-14-14-14zm0 0" fill="#3762cc"/><path d="m260.1875 292h-99c-16.542969 0-30-13.457031-30-30s13.457031-30 30-30h99c12.128906 0 22 9.871094 22 22v16c0 12.128906-9.871094 22-22 22zm-99-52c-12.132812 0-22 9.871094-22 22s9.867188 22 22 22h99c7.71875 0 14-6.28125 14-14v-16c0-7.71875-6.28125-14-14-14zm0 0" fill="#3762cc"/><path d="m260.1875 344h-72.167969c-16.542969 0-30-13.457031-30-30s13.457031-30 30-30h72.167969c12.128906 0 22 9.871094 22 22v16c0 12.128906-9.871094 22-22 22zm-72.167969-52c-12.128906 0-22 9.871094-22 22s9.871094 22 22 22h72.167969c7.71875 0 14-6.28125 14-14v-16c0-7.71875-6.28125-14-14-14zm0 0" fill="#3762cc"/></svg>